<?xml version="1.0" standalone="no"?>
<!DOCTYPE svg PUBLIC "-//W3C//DTD SVG 1.1//EN" "http://www.w3.org/Graphics/SVG/1.1/DTD/svg11.dtd" >
<svg xmlns="http://www.w3.org/2000/svg" xmlns:xlink="http://www.w3.org/1999/xlink" version="1.1">
<metadata>
Created by FontForge 20200427 at Fri Jul 10 17:44:27 2015
 By www
Copyright (c) VirusFonts, 2006. All rights reserved. www.virusfonts.com
</metadata>
<defs>
<font id="BourgeoisW00-Medium" horiz-adv-x="350" >
  <font-face 
    font-family="BourgeoisW00-Medium"
    font-weight="500"
    font-stretch="normal"
    units-per-em="1000"
    panose-1="2 0 5 6 0 0 0 2 0 4"
    ascent="800"
    descent="-200"
    x-height="421"
    cap-height="568"
    bbox="-162 -227 813 788"
    underline-thickness="50"
    underline-position="-175"
    unicode-range="U+0020-FB02"
  />
<missing-glyph horiz-adv-x="180" 
 />
    <glyph glyph-name=".notdef" horiz-adv-x="180" 
 />
    <glyph glyph-name=".null" horiz-adv-x="0" 
 />
    <glyph glyph-name="nonmarkingreturn" horiz-adv-x="333" 
 />
    <glyph glyph-name="space" unicode=" " horiz-adv-x="180" 
 />
    <glyph glyph-name="exclam" unicode="!" horiz-adv-x="223" 
d="M72 0v79h79v-79h-79zM82 136l-12 432h83l-13 -432h-58z" />
    <glyph glyph-name="quotedbl" unicode="&#x22;" horiz-adv-x="302" 
d="M49 345l-9 223h69l-9 -223h-51zM202 345l-9 223h69l-9 -223h-51z" />
    <glyph glyph-name="numbersign" unicode="#" horiz-adv-x="525" 
d="M30 181l8 38h111l28 131h-109l7 38h110l38 180h42l-39 -180h117l39 180h42l-39 -180h110l-7 -38h-111l-29 -131h110l-8 -38h-110l-38 -181h-42l38 181h-116l-38 -181h-42l39 181h-111zM307 219l28 131h-117l-28 -131h117z" />
    <glyph glyph-name="dollar" unicode="$" horiz-adv-x="478" 
d="M225 0v64h-68q-20 0 -37.5 7.5t-31 20.5t-21 30.5t-7.5 37.5v49h59v-40q0 -19 14 -32.5t34 -13.5h58v139l-109 29q-25 7 -40.5 29t-15.5 48v41q0 20 7.5 37.5t21 30.5t31 20.5t37.5 7.5h68v63h28v-63h68q41 0 69 -28t28 -68v-49h-59v40q0 19 -14 32.5t-34 13.5h-58v-139
l109 -28q26 -7 41 -28.5t15 -48.5v-42q0 -40 -28 -68t-69 -28h-68v-64h-28zM309 123q20 0 33.5 14t13.5 33v28q0 13 -7.5 23.5t-20.5 13.5l-75 19v-131h56zM225 446h-56q-20 0 -33 -13.5t-13 -32.5v-28q0 -12 7 -22.5t20 -14.5l75 -20v131z" />
    <glyph glyph-name="percent" unicode="%" horiz-adv-x="512" 
d="M274 144q0 29 19.5 49t48.5 20h62q28 0 48 -20t20 -49v-85q0 -28 -20 -48t-48 -20h-62q-29 0 -48.5 20t-19.5 48v85zM40 510q0 28 19.5 48t47.5 20h63q28 0 48 -20t20 -48v-85q0 -29 -20 -49t-48 -20h-63q-28 0 -47.5 20t-19.5 49v85zM87 431q0 -12 8 -21t19 -9h49
q11 0 19.5 9t8.5 21v73q0 11 -8.5 20t-19.5 9h-49q-11 0 -19 -9t-8 -20v-73zM98 0l267 568h48l-267 -568h-48zM321 65q0 -11 8 -20t19 -9h49q11 0 19.5 9t8.5 20v73q0 12 -8.5 21t-19.5 9h-49q-11 0 -19 -9t-8 -21v-73z" />
    <glyph glyph-name="ampersand" unicode="&#x26;" horiz-adv-x="512" 
d="M55 198q0 35 22 59.5t51 29.5q-26 8 -45 31t-19 57v99q0 21 8 40t22.5 33.5t33.5 22.5t41 8h157q22 0 41 -8t33.5 -22.5t22.5 -33.5t8 -40v-48h-65v34q0 23 -16.5 39.5t-40.5 16.5h-121q-24 0 -40 -16.5t-16 -39.5v-91q0 -23 16 -39t40 -16h299v-49h-49v-167
q0 -22 -8.5 -41.5t-23 -34.5t-34.5 -23.5t-43 -8.5h-169q-22 0 -41 8.5t-33.5 22.5t-22.5 33.5t-8 40.5v103zM121 109q0 -23 16.5 -39.5t40.5 -16.5h137q24 0 40 16.5t16 39.5v152h-193q-24 0 -40.5 -15.5t-16.5 -38.5v-98z" />
    <glyph glyph-name="quotesingle" unicode="'" horiz-adv-x="149" 
d="M49 345l-9 223h69l-9 -223h-51z" />
    <glyph glyph-name="parenleft" unicode="(" horiz-adv-x="251" 
d="M70 516q0 21 8 39t21.5 31.5t32.5 21.5t40 8h39v-50h-24q-23 0 -37.5 -15t-14.5 -36v-536q0 -21 14.5 -36t37.5 -15h24v-51h-39q-21 0 -40 8t-32.5 22t-21.5 32t-8 39v538z" />
    <glyph glyph-name="parenright" unicode=")" horiz-adv-x="251" 
d="M181 -22q0 -21 -8 -39t-21.5 -32t-32.5 -22t-40 -8h-39v51h24q23 0 37.5 15t14.5 36v536q0 21 -14.5 36t-37.5 15h-24v50h39q21 0 40 -8t32.5 -21.5t21.5 -31.5t8 -39v-538v0z" />
    <glyph glyph-name="asterisk" unicode="*" horiz-adv-x="465" 
d="M40 283l162 79l-162 79l28 48l149 -101l-12 180h56l-13 -180l149 101l28 -48l-163 -79l163 -79l-28 -48l-149 101l13 -181h-56l12 181l-149 -101z" />
    <glyph glyph-name="plus" unicode="+" horiz-adv-x="572" 
d="M50 211v58h206v210h60v-210h206v-58h-206v-211h-60v211h-206z" />
    <glyph glyph-name="comma" unicode="," horiz-adv-x="238" 
d="M77 -157l32 157h-29v79h78v-64l-58 -172h-23z" />
    <glyph glyph-name="hyphen" unicode="-" horiz-adv-x="300" 
d="M50 180v58h200v-58h-200z" />
    <glyph glyph-name="period" unicode="." horiz-adv-x="238" 
d="M80 0v79h78v-79h-78z" />
    <glyph glyph-name="slash" unicode="/" horiz-adv-x="361" 
d="M10 -12l283 607h58l-282 -607h-59z" />
    <glyph glyph-name="zero" unicode="0" horiz-adv-x="574" 
d="M60 470q0 22 8.5 41.5t23.5 34.5t34.5 23.5t42.5 8.5h236q22 0 42 -8.5t35 -23.5t23.5 -34.5t8.5 -41.5v-372q0 -22 -8.5 -41.5t-23 -34.5t-34.5 -23.5t-43 -8.5h-236q-23 0 -43 8.5t-34.5 23.5t-23 34.5t-8.5 41.5v372zM128 109q0 -19 13 -35l267 439q-5 2 -8.5 2h-8.5
h-206q-24 0 -40.5 -16.5t-16.5 -39.5v-350zM167 56q7 -3 17 -3h206q23 0 39.5 16.5t16.5 39.5v350q0 20 -13 36z" />
    <glyph glyph-name="one" unicode="1" horiz-adv-x="385" 
d="M39 0v63h121v408l-87 -85l-38 45l156 144h37v-512h122v-63h-311z" />
    <glyph glyph-name="two" unicode="2" horiz-adv-x="503" 
d="M50 29l317 319q18 19 18 46v65q0 23 -16.5 39.5t-40.5 16.5h-155q-24 0 -40.5 -16.5t-16.5 -39.5v-37h-66v51q0 21 8 40.5t22.5 33.5t33.5 22.5t41 8.5h193q22 0 41 -8.5t33 -22.5t22.5 -33.5t8.5 -40.5v-79q0 -51 -31 -81l-251 -250h276v-63h-397v29z" />
    <glyph glyph-name="three" unicode="3" horiz-adv-x="514" 
d="M50 145h64v-36q0 -23 16.5 -39.5t40.5 -16.5h161q23 0 39.5 16.5t16.5 39.5v105q0 23 -16.5 39t-39.5 16h-133v52h122q24 0 40.5 16t16.5 39v86q0 23 -16.5 39.5t-40.5 16.5h-138q-24 0 -40.5 -16.5t-16.5 -39.5v-40h-66v51q0 21 8 40.5t22.5 33.5t33.5 22.5t41 8.5h176
q22 0 41 -8.5t33 -22.5t22.5 -33.5t8.5 -40.5v-91q0 -33 -19.5 -56t-45.5 -31q29 -5 51 -30t22 -60v-110q0 -21 -8 -40.5t-22.5 -33.5t-33.5 -22.5t-41 -8.5h-194q-22 0 -41 8.5t-33.5 22.5t-22.5 33.5t-8 40.5v50z" />
    <glyph glyph-name="four" unicode="4" horiz-adv-x="486" 
d="M20 161l329 413h57v-388h70v-60h-70v-126h-67v126h-319v35zM339 186v284l-227 -284h227z" />
    <glyph glyph-name="five" unicode="5" horiz-adv-x="524" 
d="M60 146h65v-37q0 -23 16 -39.5t40 -16.5h159q24 0 40.5 16.5t16.5 39.5v153q0 23 -16.5 39.5t-40.5 16.5h-156q-30 0 -45 -17t-17 -30v-1h-55v298h390v-59h-324v-164q7 5 25 16t47 11h151q22 0 42 -8.5t34.5 -23.5t23 -34.5t8.5 -41.5v-166q0 -22 -8.5 -41.5t-23 -34.5
t-34.5 -23.5t-42 -8.5h-191q-21 0 -40.5 8t-33.5 22.5t-22.5 33.5t-8.5 40v52z" />
    <glyph glyph-name="six" unicode="6" horiz-adv-x="524" 
d="M60 470q0 22 8.5 41.5t23.5 34.5t34.5 23.5t42.5 8.5h187q22 0 42 -8.5t34.5 -23.5t23 -34.5t8.5 -41.5v-48h-66v37q0 23 -16 39.5t-40 16.5h-158q-23 0 -39.5 -16.5t-16.5 -39.5v-130q14 9 32 13t35 4h161q22 0 42 -8.5t34.5 -23.5t23 -34.5t8.5 -41.5v-140
q0 -22 -8.5 -41.5t-23 -34.5t-34.5 -23.5t-42 -8.5h-187q-23 0 -42.5 8.5t-34.5 23.5t-23.5 34.5t-8.5 41.5v372zM128 109q0 -23 16.5 -39.5t39.5 -16.5h156q24 0 40 16.5t16 39.5v128q0 23 -16 39.5t-40 16.5h-160q-31 0 -52 -18v-166z" />
    <glyph glyph-name="seven" unicode="7" horiz-adv-x="472" 
d="M365 508h-345v60h432v-27l-241 -541h-74z" />
    <glyph glyph-name="eight" unicode="8" horiz-adv-x="524" 
d="M60 209q0 35 22 59.5t51 29.5q-26 8 -45 31t-19 57v87q0 21 8 40.5t22.5 33.5t33.5 22.5t41 8.5h177q22 0 41 -8.5t33 -22.5t22.5 -33.5t8.5 -40.5v-87q0 -34 -19.5 -57t-45.5 -31q29 -5 51 -29.5t22 -59.5v-114q0 -21 -8 -40.5t-22.5 -33.5t-33.5 -22.5t-41 -8.5h-194
q-22 0 -41 8.5t-33.5 22.5t-22.5 33.5t-8 40.5v114zM127 109q0 -23 16 -39.5t40 -16.5h159q23 0 39.5 16.5t16.5 39.5v109q0 23 -16.5 39t-39.5 16h-159q-24 0 -40 -16t-16 -39v-109zM137 380q0 -23 16.5 -39t39.5 -16h138q24 0 40.5 16t16.5 39v82q0 23 -16.5 39.5
t-40.5 16.5h-138q-23 0 -39.5 -16.5t-16.5 -39.5v-82z" />
    <glyph glyph-name="nine" unicode="9" horiz-adv-x="524" 
d="M464 98q0 -22 -8.5 -41.5t-23.5 -34.5t-35 -23.5t-42 -8.5h-187q-23 0 -42.5 8.5t-34 23.5t-23 34.5t-8.5 41.5v48h66v-37q0 -23 16 -39.5t40 -16.5h158q23 0 39.5 16.5t16.5 39.5v130q-14 -9 -32 -13t-35 -4h-161q-23 0 -42.5 8.5t-34 23.5t-23 34.5t-8.5 41.5v140
q0 22 8.5 41.5t23 34.5t34 23.5t42.5 8.5h187q22 0 42 -8.5t35 -23.5t23.5 -34.5t8.5 -41.5v-372zM396 459q0 23 -16.5 39.5t-39.5 16.5h-156q-24 0 -40 -16.5t-16 -39.5v-128q0 -23 16 -39.5t40 -16.5h160q31 0 52 18v166z" />
    <glyph glyph-name="colon" unicode=":" horiz-adv-x="239" 
d="M80 78h79v-78h-79v78zM80 421h79v-79h-79v79z" />
    <glyph glyph-name="semicolon" unicode=";" horiz-adv-x="238" 
d="M79 421h79v-79h-79v79zM77 -157l32 157h-29v79h78v-64l-58 -172h-23z" />
    <glyph glyph-name="less" unicode="&#x3c;" horiz-adv-x="386" 
d="M30 254l316 177v-61l-236 -130l236 -130v-61l-316 177v28z" />
    <glyph glyph-name="equal" unicode="=" horiz-adv-x="469" 
d="M50 212h369v-54h-369v54zM50 351h369v-54h-369v54z" />
    <glyph glyph-name="greater" unicode="&#x3e;" horiz-adv-x="386" 
d="M356 226l-316 -177v61l236 130l-236 130v61l316 -177v-28z" />
    <glyph glyph-name="question" unicode="?" horiz-adv-x="460" 
d="M160 78h79v-78h-79v78zM50 474q0 21 8 40t22.5 33.5t33.5 22.5t41 8h170q22 0 41 -8t33 -22.5t22.5 -33.5t8.5 -40v-72q0 -31 -17 -54t-43 -36l-103 -48q-17 -8 -27.5 -22t-10.5 -32v-75h-61v86q0 32 17.5 54.5t45.5 36.5l97 45q17 8 26 22t9 31v49q0 23 -16.5 39.5
t-40.5 16.5h-134q-23 0 -40 -16.5t-17 -39.5v-53h-65v68z" />
    <glyph glyph-name="at" unicode="@" horiz-adv-x="714" 
d="M169 -148q-23 0 -42.5 8.5t-34.5 23.5t-23.5 34.5t-8.5 41.5v509q0 22 8.5 42t23.5 35t34.5 23.5t42.5 8.5h377q22 0 42 -8.5t34.5 -23.5t23 -34.5t8.5 -41.5v-330q0 -20 -7.5 -37t-20.5 -30t-30.5 -20.5t-37.5 -7.5h-22q-23 0 -42.5 11t-31.5 28q-12 -17 -31 -28
t-42 -11h-87q-19 0 -35.5 7t-28.5 19t-19 28.5t-7 34.5v152q0 18 7 34.5t19 29t28.5 19.5t35.5 7h183v-235q0 -19 13.5 -33t33.5 -14h16q20 0 33.5 14t13.5 33v323q0 23 -17 41t-42 18h-362q-25 0 -42.5 -18t-17.5 -41v-502q0 -23 17.5 -42t42.5 -19h475v-49h-480zM264 141
q0 -19 13 -33t33 -14h76q20 0 33.5 14t13.5 33v186h-123q-20 0 -33 -14t-13 -33v-139z" />
    <glyph glyph-name="A" unicode="A" horiz-adv-x="532" 
d="M235 568h63l224 -568h-70l-66 169h-240l-66 -169h-70zM366 226l-100 256l-100 -256h200z" />
    <glyph glyph-name="B" unicode="B" horiz-adv-x="514" 
d="M70 568h269q22 0 41 -8t33 -22.5t22.5 -33.5t8.5 -40v-88q0 -32 -19 -55t-43 -31q30 -5 53.5 -30t23.5 -61v-94q0 -21 -8.5 -40.5t-22.5 -33.5t-33 -22.5t-41 -8.5h-284v568zM335 63q23 0 39.5 16.5t16.5 39.5v88q0 23 -16.5 38.5t-39.5 15.5h-197v-198h197zM320 314
q23 0 39.5 16t16.5 39v84q0 23 -16.5 39.5t-39.5 16.5h-182v-195h182z" />
    <glyph glyph-name="C" unicode="C" horiz-adv-x="533" 
d="M60 470q0 22 8.5 41.5t23.5 34.5t34.5 23.5t41.5 8.5h201q23 0 43 -8.5t34.5 -23.5t23 -34.5t8.5 -41.5v-75h-66v64q0 23 -16.5 39.5t-40.5 16.5h-171q-24 0 -40.5 -16.5t-16.5 -39.5v-350q0 -23 16.5 -39.5t40.5 -16.5h171q24 0 40.5 16.5t16.5 39.5v62h66v-73
q0 -22 -8.5 -41.5t-23 -34.5t-34.5 -23.5t-43 -8.5h-201q-22 0 -41.5 8.5t-34.5 23.5t-23.5 34.5t-8.5 41.5v372z" />
    <glyph glyph-name="D" unicode="D" horiz-adv-x="567" 
d="M70 0v568h328q23 0 43 -8.5t34.5 -23.5t23 -34.5t8.5 -41.5v-352q0 -22 -8.5 -41.5t-23 -34.5t-34.5 -23.5t-43 -8.5h-328zM382 63q24 0 40.5 16.5t16.5 39.5v330q0 23 -16.5 39.5t-40.5 16.5h-244v-442h244z" />
    <glyph glyph-name="E" unicode="E" horiz-adv-x="476" 
d="M70 568h359v-60h-291v-192h224v-57h-224v-195h298v-64h-366v568z" />
    <glyph glyph-name="F" unicode="F" horiz-adv-x="461" 
d="M70 568h356v-60h-288v-199h222v-56h-222v-253h-68v568z" />
    <glyph glyph-name="G" unicode="G" horiz-adv-x="538" 
d="M60 470q0 22 8.5 41.5t23.5 34.5t34.5 23.5t42.5 8.5h200q23 0 43 -8.5t34.5 -23.5t23 -34.5t8.5 -41.5v-75h-66v64q0 23 -16.5 39.5t-39.5 16.5h-172q-23 0 -39.5 -16.5t-16.5 -39.5v-350q0 -23 16.5 -39.5t39.5 -16.5h172q23 0 39.5 16.5t16.5 39.5v99h-130v55h196
v-165q0 -22 -8.5 -41.5t-23 -34.5t-34.5 -23.5t-43 -8.5h-200q-23 0 -42.5 8.5t-34.5 23.5t-23.5 34.5t-8.5 41.5v372z" />
    <glyph glyph-name="H" unicode="H" horiz-adv-x="564" 
d="M70 568h68v-249h288v249h68v-568h-68v257h-288v-257h-68v568z" />
    <glyph glyph-name="I" unicode="I" horiz-adv-x="219" 
d="M75 568h69v-568h-69v568z" />
    <glyph glyph-name="J" unicode="J" horiz-adv-x="462" 
d="M30 172h67v-63q0 -23 16.5 -39.5t40.5 -16.5h123q23 0 39.5 16.5t16.5 39.5v459h69v-470q0 -22 -8.5 -41.5t-23 -34.5t-34.5 -23.5t-43 -8.5h-154q-23 0 -42.5 8.5t-34.5 23.5t-23.5 34.5t-8.5 41.5v74z" />
    <glyph glyph-name="K" unicode="K" horiz-adv-x="518" 
d="M70 568h68v-262l282 262h84l-301 -282l305 -286h-88l-282 262v-262h-68v568z" />
    <glyph glyph-name="L" unicode="L" horiz-adv-x="446" 
d="M70 0v568h68v-505h298v-63h-366z" />
    <glyph glyph-name="M" unicode="M" horiz-adv-x="674" 
d="M70 568h49l218 -459l219 459h48v-568h-65v387l-184 -387h-35l-184 387v-387h-66v568z" />
    <glyph glyph-name="N" unicode="N" horiz-adv-x="581" 
d="M70 568h52l321 -320v320h68v-568h-68v159l-305 306v-465h-68v568z" />
    <glyph glyph-name="O" unicode="O" horiz-adv-x="574" 
d="M60 470q0 22 8.5 41.5t23.5 34.5t34.5 23.5t42.5 8.5h236q22 0 42 -8.5t35 -23.5t23.5 -34.5t8.5 -41.5v-372q0 -22 -8.5 -41.5t-23 -34.5t-34.5 -23.5t-43 -8.5h-236q-23 0 -43 8.5t-34.5 23.5t-23 34.5t-8.5 41.5v372zM128 109q0 -23 16.5 -39.5t39.5 -16.5h206
q24 0 40 16.5t16 39.5v350q0 23 -16 39.5t-40 16.5h-206q-23 0 -39.5 -16.5t-16.5 -39.5v-350z" />
    <glyph glyph-name="P" unicode="P" horiz-adv-x="478" 
d="M70 568h264q23 0 43 -8.5t34.5 -23.5t23 -34.5t8.5 -41.5v-137q0 -22 -8.5 -41.5t-23 -34.5t-34.5 -23.5t-43 -8.5h-197v-215h-67v568zM313 272q26 0 44 18.5t18 43.5v113q0 25 -18 43.5t-44 18.5h-176v-237h176z" />
    <glyph glyph-name="Q" unicode="Q" horiz-adv-x="574" 
d="M60 470q0 22 8.5 41.5t23.5 34.5t34.5 23.5t41.5 8.5h237q23 0 43 -8.5t34.5 -23.5t23 -34.5t8.5 -41.5v-372q0 -22 -8.5 -41.5t-23 -34.5t-34.5 -23.5t-43 -8.5h-76l80 -105h-80l-73 105h-88q-22 0 -41.5 8.5t-34.5 23.5t-23.5 34.5t-8.5 41.5v372zM128 109
q0 -23 16.5 -39.5t39.5 -16.5h206q24 0 40 16.5t16 39.5v350q0 23 -16 39.5t-40 16.5h-206q-23 0 -39.5 -16.5t-16.5 -39.5v-350z" />
    <glyph glyph-name="R" unicode="R" horiz-adv-x="507" 
d="M70 568h264q23 0 43 -8.5t34.5 -23.5t23 -34.5t8.5 -41.5v-134q0 -41 -27 -71t-68 -34h-16l155 -221h-78l-152 218h-119v-218h-68v568zM313 275q26 0 44 18.5t18 43.5v110q0 25 -18 43.5t-44 18.5h-175v-234h175z" />
    <glyph glyph-name="S" unicode="S" horiz-adv-x="518" 
d="M55 166h65v-57q0 -23 17 -39.5t40 -16.5h162q23 0 40.5 16.5t17.5 39.5v64q0 15 -8.5 30t-25.5 20l-240 75q-30 10 -49 36t-19 58v78q0 22 8.5 41.5t23.5 34.5t34.5 23.5t42.5 8.5h190q23 0 43 -8.5t34.5 -23.5t23 -34.5t8.5 -41.5v-68h-65v57q0 23 -17 39.5t-40 16.5
h-162q-23 0 -40.5 -16.5t-17.5 -39.5v-59q0 -15 8.5 -29.5t25.5 -19.5l240 -76q31 -10 49.5 -36t18.5 -58v-83q0 -22 -8.5 -41.5t-23 -34.5t-34.5 -23.5t-43 -8.5h-190q-23 0 -42.5 8.5t-34.5 23.5t-23.5 34.5t-8.5 41.5v68z" />
    <glyph glyph-name="T" unicode="T" horiz-adv-x="477" 
d="M10 568h457v-60h-195v-508h-67v508h-195v60z" />
    <glyph glyph-name="U" unicode="U" horiz-adv-x="554" 
d="M65 568h67v-459q0 -23 16.5 -39.5t40.5 -16.5h175q24 0 40.5 16.5t16.5 39.5v459h68v-470q0 -22 -8.5 -41.5t-23 -34.5t-34.5 -23.5t-43 -8.5h-207q-22 0 -41.5 8.5t-34.5 23.5t-23.5 34.5t-8.5 41.5v470z" />
    <glyph glyph-name="V" unicode="V" horiz-adv-x="518" 
d="M83 568l176 -471l176 471h73l-218 -568h-62l-218 568h73z" />
    <glyph glyph-name="W" unicode="W" horiz-adv-x="745" 
d="M83 568l180 -480l80 208l-104 272h59l74 -196l75 196h59l-104 -272l80 -208l180 480h73l-219 -568h-60l-84 222l-83 -222h-60l-219 568h73z" />
    <glyph glyph-name="X" unicode="X" horiz-adv-x="532" 
d="M227 284l-212 284h83l168 -229l168 229h83l-212 -284l212 -284h-84l-167 230l-168 -230h-83z" />
    <glyph glyph-name="Y" unicode="Y" horiz-adv-x="503" 
d="M10 568h77l164 -272l165 272h77l-208 -340v-228h-67v228z" />
    <glyph glyph-name="Z" unicode="Z" horiz-adv-x="447" 
d="M20 0v29l304 478h-304v61h404v-30l-303 -474h306v-64h-407z" />
    <glyph glyph-name="bracketleft" unicode="[" horiz-adv-x="245" 
d="M70 616h135v-45h-76v-648h76v-46h-135v739z" />
    <glyph glyph-name="backslash" unicode="\" horiz-adv-x="361" 
d="M68 595l283 -607h-59l-282 607h58z" />
    <glyph glyph-name="bracketright" unicode="]" horiz-adv-x="245" 
d="M175 -123h-135v46h76v648h-76v45h135v-739z" />
    <glyph glyph-name="asciicircum" unicode="^" horiz-adv-x="450" 
d="M204 675h42l164 -351h-62l-123 278l-122 -278h-63z" />
    <glyph glyph-name="underscore" unicode="_" horiz-adv-x="410" 
d="M0 0h410v-34h-410v34z" />
    <glyph glyph-name="grave" unicode="`" 
d="M181 588l54 -145h-45l-75 145h66z" />
    <glyph glyph-name="a" unicode="a" horiz-adv-x="452" 
d="M397 0h-58l-4 37q-11 -20 -32.5 -33.5t-47.5 -13.5h-108q-20 0 -38 7.5t-31 21t-20.5 30.5t-7.5 37v54q0 26 16 46t40 27l200 54q12 4 19.5 14t7.5 22v23q0 19 -13 33t-33 14h-123q-20 0 -34 -14t-14 -33v-42h-59v51q0 40 28 68t69 28h145q20 0 38 -7.5t31.5 -20.5
t21 -30.5t7.5 -37.5v-335zM113 94q0 -19 13 -33t33 -14h114q25 0 42 17t17 42v123q-7 -7 -20 -11l-172 -49q-13 -3 -20 -13.5t-7 -23.5v-38z" />
    <glyph glyph-name="b" unicode="b" horiz-adv-x="480" 
d="M55 638h64v-255q11 21 32 34.5t47 13.5h130q42 0 69.5 -28t27.5 -68v-249q0 -20 -7.5 -37t-20.5 -30.5t-30.5 -21t-38.5 -7.5h-131q-26 0 -47 13.5t-32 33.5l-5 -37h-58v638zM119 109q0 -26 18.5 -44.5t45.5 -18.5h132q20 0 33 14t13 33v232q0 19 -13 33t-33 14h-132
q-27 0 -45.5 -18.5t-18.5 -44.5v-200z" />
    <glyph glyph-name="c" unicode="c" horiz-adv-x="467" 
d="M55 335q0 20 7.5 37.5t21 30.5t31 20.5t37.5 7.5h168q42 0 69.5 -28t27.5 -68v-60h-58v51q0 19 -14 33t-34 14h-147q-20 0 -33.5 -14t-13.5 -33v-231q0 -19 13.5 -33t33.5 -14h147q20 0 34 14t14 33v52h58v-61q0 -20 -7.5 -37t-20.5 -30.5t-30.5 -21t-38.5 -7.5h-168
q-20 0 -37.5 7.5t-31 21t-21 30.5t-7.5 37v249z" />
    <glyph glyph-name="d" unicode="d" horiz-adv-x="480" 
d="M55 335q0 19 7.5 36.5t20.5 31t30.5 21t38.5 7.5h130q26 0 47 -13.5t32 -34.5v255h64v-638h-58l-5 37q-11 -21 -32 -34t-47 -13h-131q-42 0 -69.5 28t-27.5 68v249zM119 93q0 -19 13 -33t33 -14h132q27 0 45.5 18.5t18.5 44.5v199q0 26 -18.5 44.5t-45.5 18.5h-132
q-20 0 -33 -14t-13 -33v-231z" />
    <glyph glyph-name="e" unicode="e" horiz-adv-x="461" 
d="M55 335q0 20 7.5 37.5t21 30.5t31 20.5t37.5 7.5h162q42 0 69.5 -28t27.5 -68v-130h-294v-110q0 -19 13.5 -33t33.5 -14h141q20 0 34 14t14 33v49h58v-58q0 -20 -7.5 -37t-20.5 -30.5t-30.5 -21t-38.5 -7.5h-162q-20 0 -37.5 7.5t-31 21t-21 30.5t-7.5 37v249zM353 251
v75q0 19 -14 33t-34 14h-141q-20 0 -33.5 -14t-13.5 -33v-75h236z" />
    <glyph glyph-name="f" unicode="f" horiz-adv-x="281" 
d="M10 368v53h75v121q0 20 7.5 37.5t21 30.5t31 20.5t37.5 7.5h101v-56h-87q-20 0 -33.5 -14t-13.5 -33v-114h124v-53h-124v-499q0 -20 -7.5 -37.5t-21 -30.5t-31 -20.5t-37.5 -7.5h-71v56h57q20 0 33.5 14t13.5 33v492h-75z" />
    <glyph glyph-name="g" unicode="g" horiz-adv-x="431" 
d="M40 -74q0 20 7 35t20 28l42 39q-20 7 -33.5 24.5t-13.5 40.5q0 26 19 47q-19 13 -30 33.5t-11 45.5v106q0 19 7.5 36.5t20.5 31t31 21t38 7.5h260v-44l-46 -6q11 -8 18 -22t7 -31v-99q0 -40 -27.5 -68t-68.5 -28h-141q-11 0 -20 3q-11 -11 -11 -27q0 -26 25 -34l202 -45
q30 -7 48 -30t18 -55v-66q0 -40 -27.5 -68t-68.5 -28h-168q-41 0 -69 28t-28 68v57zM97 -122q0 -19 14 -33t34 -14h148q20 0 33.5 14t13.5 33v53q0 19 -9.5 30t-23.5 15l-151 38l-39 -41q-9 -9 -14.5 -17.5t-5.5 -24.5v-53zM103 218q0 -19 13 -33t33 -14h118q20 0 33.5 14
t13.5 33v97q0 19 -13.5 33t-33.5 14h-118q-20 0 -33 -14t-13 -33v-97z" />
    <glyph glyph-name="h" unicode="h" horiz-adv-x="475" 
d="M55 638h64v-255q11 21 31.5 34.5t46.5 13.5h127q41 0 68.5 -28t27.5 -68v-335h-63v325q0 19 -13.5 33t-33.5 14h-128q-27 0 -45 -18.5t-18 -44.5v-309h-64v638z" />
    <glyph glyph-name="i" unicode="i" horiz-adv-x="194" 
d="M65 421h64v-421h-64v421zM65 568h63v-78h-63v78z" />
    <glyph glyph-name="j" unicode="j" horiz-adv-x="174" 
d="M56 568h62v-78h-62v78zM-57 -167h65q20 0 33.5 14t13.5 33v541h64v-552q0 -20 -7.5 -37t-20.5 -30.5t-31 -21t-38 -7.5h-79v60z" />
    <glyph glyph-name="k" unicode="k" horiz-adv-x="407" 
d="M55 638h64v-407l206 190h79l-222 -209l225 -212h-84l-204 189v-189h-64v638z" />
    <glyph glyph-name="l" unicode="l" horiz-adv-x="215" 
d="M55 638h64v-531q0 -19 13.5 -33t33.5 -14h39v-60h-53q-20 0 -38 7.5t-31 21t-20.5 30.5t-7.5 37v542z" />
    <glyph glyph-name="m" unicode="m" horiz-adv-x="693" 
d="M55 421h58l4 -38q11 21 32 34.5t47 13.5h85q25 0 45.5 -12t33.5 -32q13 20 34 32t46 12h101q42 0 69.5 -28t27.5 -68v-335h-64v325q0 19 -13 33t-33 14h-104q-20 0 -33 -14t-14 -33v-325h-62v325q0 19 -13.5 33t-33.5 14h-86q-27 0 -45 -18.5t-18 -44.5v-309h-64v421z
" />
    <glyph glyph-name="n" unicode="n" horiz-adv-x="476" 
d="M55 421h64v-38q11 21 31.5 34.5t46.5 13.5h127q41 0 69 -28t28 -68v-335h-64v325q0 19 -13.5 33t-33.5 14h-128q-27 0 -45 -18.5t-18 -44.5v-309h-64v421z" />
    <glyph glyph-name="o" unicode="o" horiz-adv-x="477" 
d="M55 335q0 19 7.5 36.5t20.5 31t30.5 21t37.5 7.5h174q20 0 37.5 -7.5t31 -21t21 -31t7.5 -36.5v-249q0 -40 -28 -68t-69 -28h-174q-41 0 -68.5 28t-27.5 68v249zM117 95q0 -19 13 -33t33 -14h150q20 0 33.5 14t13.5 33v231q0 19 -13.5 33t-33.5 14h-150q-20 0 -33 -14
t-13 -33v-231z" />
    <glyph glyph-name="p" unicode="p" horiz-adv-x="479" 
d="M55 421h58l4 -38q11 21 32 34.5t47 13.5h132q20 0 37.5 -7.5t30.5 -21t20.5 -31t7.5 -36.5v-249q0 -40 -27.5 -68t-68.5 -28h-131q-26 0 -46.5 13.5t-31.5 34.5v-255h-64v638zM119 109q0 -26 18 -44.5t45 -18.5h132q20 0 33.5 14t13.5 33v231q0 20 -13.5 34t-33.5 14
h-132q-27 0 -45 -18.5t-18 -45.5v-199z" />
    <glyph glyph-name="q" unicode="q" horiz-adv-x="480" 
d="M425 -217h-64v255q-11 -21 -32 -34.5t-47 -13.5h-130q-42 0 -69.5 28t-27.5 68v249q0 19 7.5 36.5t20.5 31t30.5 21t38.5 7.5h132q26 0 46.5 -13.5t31.5 -34.5l5 38h58v-638zM361 308q0 27 -18.5 45.5t-45.5 18.5h-132q-20 0 -33 -14t-13 -34v-231q0 -19 13 -33t33 -14
h132q27 0 45.5 18.5t18.5 44.5v199z" />
    <glyph glyph-name="r" unicode="r" horiz-adv-x="263" 
d="M55 421h58l5 -48q11 21 31.5 34.5t46.5 13.5h57v-59h-70q-27 0 -45.5 -18.5t-18.5 -45.5v-298h-64v421z" />
    <glyph glyph-name="s" unicode="s" horiz-adv-x="432" 
d="M45 135h59v-40q0 -19 14 -32.5t34 -13.5h126q20 0 33.5 14t13.5 33v28q0 13 -7.5 23t-20.5 14l-196 56q-25 7 -40.5 29t-15.5 48v41q0 20 7.5 37.5t21 30.5t31 20.5t37.5 7.5h148q41 0 69 -28t28 -68v-49h-59v40q0 19 -14 32.5t-34 13.5h-126q-20 0 -33 -13.5t-13 -32.5
v-28q0 -12 7 -22.5t20 -14.5l196 -56q26 -7 41 -28.5t15 -48.5v-42q0 -40 -28 -68t-69 -28h-148q-20 0 -37.5 7.5t-31 20.5t-21 30.5t-7.5 37.5v49z" />
    <glyph glyph-name="t" unicode="t" horiz-adv-x="292" 
d="M181 0q-40 0 -68 28t-28 68v272h-75v53h75l8 118h56v-118h122v-53h-122v-262q0 -19 13 -33t33 -14h87v-59h-101z" />
    <glyph glyph-name="u" unicode="u" horiz-adv-x="472" 
d="M55 421h64v-324q0 -20 13.5 -34t33.5 -14h124q27 0 45 18.5t18 45.5v308h64v-421h-58l-5 38q-11 -21 -31.5 -34.5t-46.5 -13.5h-124q-20 0 -38 7.5t-31 21t-20.5 30.5t-7.5 37v335z" />
    <glyph glyph-name="v" unicode="v" horiz-adv-x="400" 
d="M73 421l127 -330l126 330h69l-168 -421h-54l-168 421h68z" />
    <glyph glyph-name="w" unicode="w" horiz-adv-x="615" 
d="M74 421l105 -325l105 325h46l105 -325l106 325h69l-142 -421h-56l-105 322l-105 -322h-56l-141 421h69z" />
    <glyph glyph-name="x" unicode="x" horiz-adv-x="399" 
d="M163 212l-156 209h79l113 -159l113 159h80l-156 -209l158 -212h-79l-116 161l-116 -161h-78z" />
    <glyph glyph-name="y" unicode="y" horiz-adv-x="397" 
d="M78 -217l90 226l-163 412h70l126 -329l124 329h67l-246 -638h-68z" />
    <glyph glyph-name="z" unicode="z" horiz-adv-x="374" 
d="M25 0v28l225 334h-225v59h321v-29l-225 -331h228v-61h-324z" />
    <glyph glyph-name="braceleft" unicode="{" horiz-adv-x="264" 
d="M224 565h-20q-24 0 -40 -16t-16 -39v-175q0 -26 -14 -52t-40 -37q26 -11 40 -36t14 -52v-175q0 -23 16 -39t40 -16h20v-51h-36q-22 0 -41 8t-33.5 22.5t-22.5 33.5t-8 41v186q0 22 -15 39t-38 20v39q23 3 38 20t15 39v186q0 22 8 41t22.5 33t33.5 22.5t41 8.5h36v-51z
" />
    <glyph glyph-name="bar" unicode="|" horiz-adv-x="256" 
d="M105 710h46v-900h-46v900z" />
    <glyph glyph-name="braceright" unicode="}" horiz-adv-x="264" 
d="M40 616h35q22 0 41.5 -8.5t33.5 -22.5t22.5 -33t8.5 -41v-186q0 -22 15 -39t38 -20v-39q-23 -3 -38 -20t-15 -39v-186q0 -22 -8.5 -41t-22.5 -33.5t-33.5 -22.5t-41.5 -8h-35v51h20q23 0 39.5 16t16.5 39v175q0 27 13.5 52t39.5 36q-26 11 -39.5 37t-13.5 52v175
q0 23 -16.5 39t-39.5 16h-20v51z" />
    <glyph glyph-name="asciitilde" unicode="~" horiz-adv-x="574" 
d="M35 186q3 28 13 52.5t26.5 42.5t39 28.5t52.5 10.5q32 0 65 -14t65 -30.5t62 -30t56 -13.5q37 0 59 26.5t27 61.5h39q-7 -57 -39 -95.5t-92 -38.5q-32 0 -65 13.5t-65 30t-62 30t-56 13.5q-37 0 -59 -26t-27 -61h-39v0z" />
    <glyph glyph-name="uni00A0" unicode="&#xa0;" horiz-adv-x="180" 
 />
    <glyph glyph-name="exclamdown" unicode="&#xa1;" horiz-adv-x="223" 
d="M151 421v-79h-79v79h79zM141 285l12 -432h-83l13 432h58z" />
    <glyph glyph-name="cent" unicode="&#xa2;" horiz-adv-x="488" 
d="M60 408q0 20 7.5 37.5t20.5 31t31 21t38 7.5h74v63h29v-63h71q21 0 38.5 -7.5t30.5 -21t20.5 -31t7.5 -37.5v-59h-59v50q0 19 -14 33t-34 14h-61v-323h61q20 0 34 14t14 33v50h59v-59q0 -20 -7.5 -37.5t-20.5 -31t-30.5 -21t-38.5 -7.5h-71v-64h-29v64h-74q-20 0 -38 7.5
t-31 21t-20.5 31t-7.5 37.5v247zM122 170q0 -19 13.5 -33t33.5 -14h62v323h-62q-20 0 -33.5 -14t-13.5 -33v-229z" />
    <glyph glyph-name="sterling" unicode="&#xa3;" horiz-adv-x="491" 
d="M30 63h50v178h-50v51h50v182q0 21 8 40t22.5 33.5t33.5 22.5t41 8h166q22 0 41 -8t33 -22.5t22.5 -33.5t8.5 -40v-68h-65v57q0 23 -17 39.5t-41 16.5h-129q-24 0 -40 -16.5t-16 -39.5v-171h183v-51h-183v-178h308v-63h-426v63z" />
    <glyph glyph-name="yen" unicode="&#xa5;" horiz-adv-x="503" 
d="M73 150h145v67h-145v38h129l-192 313h77l164 -272l165 272h77l-193 -313h130v-38h-145v-67h145v-38h-145v-112h-67v112h-145v38z" />
    <glyph glyph-name="brokenbar" unicode="&#xa6;" horiz-adv-x="256" 
d="M105 -190v391h46v-391h-46zM105 330v380h46v-380h-46z" />
    <glyph glyph-name="section" unicode="&#xa7;" horiz-adv-x="394" 
d="M40 -57h43v-54q0 -27 19.5 -46t46.5 -19h96q27 0 46.5 19t19.5 46v50q0 17 -11.5 31t-28.5 24l-167 100q-26 14 -45 36t-19 51v293q0 21 8 40t22 33.5t33 22.5t40 8h107q22 0 41 -8t33 -22.5t22 -33.5t8 -40v-58h-43v54q0 26 -20 45.5t-47 19.5h-95q-28 0 -47 -19.5
t-19 -45.5v-51q0 -17 11.5 -31t28.5 -23l166 -101q26 -14 45.5 -36t19.5 -51v-293q0 -21 -8 -39.5t-22 -33t-33 -22.5t-40 -8h-107q-22 0 -41 8t-33 22.5t-22 33t-8 39.5v59zM82 185q0 -17 12 -31.5t33 -25.5l154 -94q19 -10 30 -23v162q0 17 -12 31.5t-32 25.5l-155 94
q-15 8 -30 23v-162z" />
    <glyph glyph-name="dieresis" unicode="&#xa8;" 
d="M71 575h55v-98h-55v98zM224 575h55v-98h-55v98z" />
    <glyph glyph-name="copyright" unicode="&#xa9;" horiz-adv-x="648" 
d="M30 284q0 61 23 114.5t63 93.5t93.5 63t114.5 23t114.5 -23t93.5 -63t63 -93.5t23 -114.5t-23 -114.5t-63 -93.5t-93.5 -63t-114.5 -23t-114.5 23t-93.5 63t-63 93.5t-23 114.5zM57 284q0 -55 21 -104t57.5 -85.5t85 -58t103.5 -21.5t103.5 21.5t84.5 58t57 85.5t21 104
t-21 103.5t-57 85.5t-84.5 58.5t-103.5 21.5t-103.5 -21.5t-85 -58.5t-57.5 -85.5t-21 -103.5zM203 379q0 28 19.5 47.5t47.5 19.5h104q29 0 48 -19.5t19 -47.5v-35h-42v25q0 15 -10.5 24.5t-25.5 9.5h-81q-14 0 -24 -9.5t-10 -24.5v-170q0 -15 10 -25t24 -10h81
q15 0 25.5 10t10.5 25v24h42v-34q0 -28 -19 -47.5t-48 -19.5h-104q-28 0 -47.5 19.5t-19.5 47.5v190z" />
    <glyph glyph-name="guillemotleft" unicode="&#xab;" horiz-adv-x="371" 
d="M120 419h69l-91 -179l91 -180h-69l-90 180zM262 419h69l-91 -179l91 -180h-69l-90 180z" />
    <glyph glyph-name="registered" unicode="&#xae;" horiz-adv-x="502" 
d="M30 357q0 46 17.5 86t47.5 70t70 47.5t86 17.5t86 -17.5t70 -47.5t47.5 -70t17.5 -86t-17.5 -86t-47.5 -70t-70 -47.5t-86 -17.5t-86 17.5t-70 47.5t-47.5 70t-17.5 86zM55 357q0 -41 15.5 -77t42 -62.5t62 -42t76.5 -15.5q40 0 76 15.5t62 42t41.5 62.5t15.5 77
t-15.5 77t-41.5 62.5t-62 42t-76 15.5q-41 0 -76.5 -15.5t-62 -42t-42 -62.5t-15.5 -77zM171 474h111q20 0 35 -15t15 -35v-46q0 -19 -12.5 -33t-30.5 -16l63 -89h-42l-61 87h-43v-87h-35v234zM268 357q13 0 20.5 8.5t7.5 19.5v30q0 11 -7.5 19.5t-20.5 8.5h-62v-86h62z" />
    <glyph glyph-name="macron" unicode="&#xaf;" 
d="M27 531h296v-50h-296v50z" />
    <glyph glyph-name="degree" unicode="&#xb0;" horiz-adv-x="302" 
d="M40 510q0 28 19.5 48t47.5 20h87q28 0 48 -20t20 -48v-86q0 -28 -20 -48t-48 -20h-87q-28 0 -47.5 20t-19.5 48v86zM87 430q0 -11 8 -20t19 -9h73q11 0 19.5 9t8.5 20v74q0 11 -8.5 20t-19.5 9h-73q-11 0 -19 -9t-8 -20v-74z" />
    <glyph glyph-name="acute" unicode="&#xb4;" 
d="M115 443l54 145h66l-75 -145h-45z" />
    <glyph glyph-name="paragraph" unicode="&#xb6;" horiz-adv-x="403" 
d="M10 446q0 25 9.5 47.5t26 39t39 26t47.5 9.5h221v-628h-28v592h-58v-532h-37v185h-98q-25 0 -47.5 9.5t-39 26t-26 39t-9.5 47.5v139z" />
    <glyph glyph-name="periodcentered" unicode="&#xb7;" horiz-adv-x="238" 
d="M80 302v79h78v-79h-78z" />
    <glyph glyph-name="cedilla" unicode="&#xb8;" 
d="M169 13h66l-75 -145h-45z" />
    <glyph glyph-name="guillemotright" unicode="&#xbb;" horiz-adv-x="371" 
d="M341 240l-90 -180h-69l91 180l-91 179h69zM199 240l-90 -180h-69l91 180l-91 179h69z" />
    <glyph glyph-name="questiondown" unicode="&#xbf;" horiz-adv-x="460" 
d="M300 343h-79v78h79v-78zM410 -53q0 -21 -8.5 -40t-22.5 -33.5t-33 -22.5t-41 -8h-170q-22 0 -41 8t-33.5 22.5t-22.5 33.5t-8 40v72q0 31 17 54t43 36l103 48q17 8 27.5 22t10.5 32v75h61v-86q0 -32 -17.5 -54.5t-45.5 -36.5l-97 -45q-17 -8 -26 -22t-9 -31v-49
q0 -23 16.5 -39.5t40.5 -16.5h134q23 0 40 16.5t17 39.5v53h65v-68z" />
    <glyph glyph-name="Agrave" unicode="&#xc0;" horiz-adv-x="532" 
d="M244 620l-75 145h66l54 -145h-45zM235 568h63l224 -568h-70l-66 169h-240l-66 -169h-70zM366 226l-100 256l-100 -256h200z" />
    <glyph glyph-name="Aacute" unicode="&#xc1;" horiz-adv-x="532" 
d="M243 620l54 145h66l-75 -145h-45zM235 568h63l224 -568h-70l-66 169h-240l-66 -169h-70zM366 226l-100 256l-100 -256h200z" />
    <glyph glyph-name="Acircumflex" unicode="&#xc2;" horiz-adv-x="532" 
d="M244 766h45l82 -145h-57l-48 99l-48 -99h-57zM235 568h63l224 -568h-70l-66 169h-240l-66 -169h-70zM366 226l-100 256l-100 -256h200z" />
    <glyph glyph-name="Atilde" unicode="&#xc3;" horiz-adv-x="532" 
d="M125 644q3 36 23 64t57 28q19 0 35.5 -6.5t32.5 -14.5t31 -14.5t31 -6.5t27.5 11.5t15.5 30.5h29q-2 -36 -22 -64t-57 -28q-19 0 -36 6.5t-32.5 14.5t-30.5 14.5t-31 6.5q-17 0 -28.5 -11.5t-14.5 -30.5h-30zM235 568h63l224 -568h-70l-66 169h-240l-66 -169h-70z
M366 226l-100 256l-100 -256h200z" />
    <glyph glyph-name="Adieresis" unicode="&#xc4;" horiz-adv-x="532" 
d="M162 752h55v-98h-55v98zM315 752h55v-98h-55v98zM235 568h63l224 -568h-70l-66 169h-240l-66 -169h-70zM366 226l-100 256l-100 -256h200z" />
    <glyph glyph-name="Aring" unicode="&#xc5;" horiz-adv-x="532" 
d="M181 704q0 35 24.5 59.5t59.5 24.5t60 -24t25 -59v-1q0 -35 -25 -59.5t-60 -24.5q-17 0 -32.5 6.5t-27 18t-18 26.5t-6.5 33zM219 704q0 -19 13.5 -32.5t32.5 -13.5t32.5 13.5t13.5 32.5t-13 32.5t-33 13.5q-19 0 -32.5 -13.5t-13.5 -32.5zM235 568h63l224 -568h-70
l-66 169h-240l-66 -169h-70zM366 226l-100 256l-100 -256h200z" />
    <glyph glyph-name="AE" unicode="&#xc6;" horiz-adv-x="752" 
d="M330 568h375v-60h-292v-192h225v-57h-225v-195h299v-64h-367v163h-177l-92 -163h-76zM345 220v253l-145 -253h145z" />
    <glyph glyph-name="Ccedilla" unicode="&#xc7;" horiz-adv-x="533" 
d="M60 470q0 22 8.5 41.5t23.5 34.5t34.5 23.5t41.5 8.5h201q23 0 43 -8.5t34.5 -23.5t23 -34.5t8.5 -41.5v-75h-66v64q0 23 -16.5 39.5t-40.5 16.5h-171q-24 0 -40.5 -16.5t-16.5 -39.5v-350q0 -23 16.5 -39.5t40.5 -16.5h171q24 0 40.5 16.5t16.5 39.5v62h66v-73
q0 -22 -8.5 -41.5t-23 -34.5t-34.5 -23.5t-43 -8.5h-67l-63 -122h-45l45 122h-71q-22 0 -41.5 8.5t-34.5 23.5t-23.5 34.5t-8.5 41.5v372z" />
    <glyph glyph-name="Egrave" unicode="&#xc8;" horiz-adv-x="476" 
d="M70 568h359v-60h-291v-192h224v-57h-224v-195h298v-64h-366v568zM227 620l-75 145h66l54 -145h-45z" />
    <glyph glyph-name="Eacute" unicode="&#xc9;" horiz-adv-x="476" 
d="M70 568h359v-60h-291v-192h224v-57h-224v-195h298v-64h-366v568zM227 620l54 145h66l-75 -145h-45z" />
    <glyph glyph-name="Ecircumflex" unicode="&#xca;" horiz-adv-x="476" 
d="M228 766h45l82 -145h-57l-48 99l-48 -99h-57zM70 568h359v-60h-291v-192h224v-57h-224v-195h298v-64h-366v568z" />
    <glyph glyph-name="Edieresis" unicode="&#xcb;" horiz-adv-x="476" 
d="M70 568h359v-60h-291v-192h224v-57h-224v-195h298v-64h-366v568zM147 752h55v-98h-55v98zM300 752h55v-98h-55v98z" />
    <glyph glyph-name="Igrave" unicode="&#xcc;" horiz-adv-x="219" 
d="M88 620l-75 145h66l54 -145h-45zM75 568h69v-568h-69v568z" />
    <glyph glyph-name="Iacute" unicode="&#xcd;" horiz-adv-x="219" 
d="M87 620l54 145h66l-75 -145h-45zM75 568h69v-568h-69v568z" />
    <glyph glyph-name="Icircumflex" unicode="&#xce;" horiz-adv-x="219" 
d="M87 766h45l82 -145h-57l-48 99l-48 -99h-57zM74 568h69v-568h-69v568z" />
    <glyph glyph-name="Idieresis" unicode="&#xcf;" horiz-adv-x="219" 
d="M6 752h55v-98h-55v98zM159 752h55v-98h-55v98zM75 568h69v-568h-69v568z" />
    <glyph glyph-name="Eth" unicode="&#xd0;" horiz-adv-x="567" 
d="M70 0v272h-50v47h50v249h328q23 0 43 -8.5t34.5 -23.5t23 -34.5t8.5 -41.5v-352q0 -22 -8.5 -41.5t-23 -34.5t-34.5 -23.5t-43 -8.5h-328zM382 63q24 0 40.5 16.5t16.5 39.5v330q0 23 -16.5 39.5t-40.5 16.5h-244v-186h98v-47h-98v-209h244z" />
    <glyph glyph-name="Ntilde" unicode="&#xd1;" horiz-adv-x="581" 
d="M149 644q3 36 23 64t57 28q19 0 35.5 -6.5t32.5 -14.5t31 -14.5t31 -6.5t27.5 11.5t15.5 30.5h29q-2 -36 -22 -64t-57 -28q-19 0 -36 6.5t-32.5 14.5t-30.5 14.5t-31 6.5q-17 0 -28.5 -11.5t-14.5 -30.5h-30zM70 568h52l321 -320v320h68v-568h-68v159l-305 306v-465h-68
v568z" />
    <glyph glyph-name="Ograve" unicode="&#xd2;" horiz-adv-x="574" 
d="M514 98q0 -22 -8.5 -41.5t-23 -34.5t-34.5 -23.5t-43 -8.5h-236q-23 0 -43 8.5t-34.5 23.5t-23 34.5t-8.5 41.5v372q0 22 8.5 41.5t23.5 34.5t34.5 23.5t42.5 8.5h236q22 0 42 -8.5t35 -23.5t23.5 -34.5t8.5 -41.5v-372zM446 459q0 23 -16.5 39.5t-39.5 16.5h-206
q-24 0 -40 -16.5t-16 -39.5v-350q0 -23 16 -39.5t40 -16.5h206q23 0 39.5 16.5t16.5 39.5v350zM265 620l-75 145h66l54 -145h-45z" />
    <glyph glyph-name="Oacute" unicode="&#xd3;" horiz-adv-x="574" 
d="M60 470q0 22 8.5 41.5t23.5 34.5t34.5 23.5t42.5 8.5h236q22 0 42 -8.5t35 -23.5t23.5 -34.5t8.5 -41.5v-372q0 -22 -8.5 -41.5t-23 -34.5t-34.5 -23.5t-43 -8.5h-236q-23 0 -43 8.5t-34.5 23.5t-23 34.5t-8.5 41.5v372zM128 109q0 -23 16.5 -39.5t39.5 -16.5h206
q24 0 40 16.5t16 39.5v350q0 23 -16 39.5t-40 16.5h-206q-23 0 -39.5 -16.5t-16.5 -39.5v-350zM264 620l54 145h66l-75 -145h-45z" />
    <glyph glyph-name="Ocircumflex" unicode="&#xd4;" horiz-adv-x="574" 
d="M265 766h45l82 -145h-57l-48 99l-48 -99h-57zM60 470q0 22 8.5 41.5t23.5 34.5t34.5 23.5t42.5 8.5h236q22 0 42 -8.5t35 -23.5t23.5 -34.5t8.5 -41.5v-372q0 -22 -8.5 -41.5t-23 -34.5t-34.5 -23.5t-43 -8.5h-236q-23 0 -43 8.5t-34.5 23.5t-23 34.5t-8.5 41.5v372z
M128 109q0 -23 16.5 -39.5t39.5 -16.5h206q24 0 40 16.5t16 39.5v350q0 23 -16 39.5t-40 16.5h-206q-23 0 -39.5 -16.5t-16.5 -39.5v-350z" />
    <glyph glyph-name="Otilde" unicode="&#xd5;" horiz-adv-x="574" 
d="M146 644q3 36 23 64t57 28q19 0 35.5 -6.5t32.5 -14.5t31 -14.5t31 -6.5t27.5 11.5t15.5 30.5h29q-2 -36 -22 -64t-57 -28q-19 0 -36 6.5t-32.5 14.5t-30.5 14.5t-31 6.5q-17 0 -28.5 -11.5t-14.5 -30.5h-30zM60 470q0 22 8.5 41.5t23.5 34.5t34.5 23.5t42.5 8.5h236
q22 0 42 -8.5t35 -23.5t23.5 -34.5t8.5 -41.5v-372q0 -22 -8.5 -41.5t-23 -34.5t-34.5 -23.5t-43 -8.5h-236q-23 0 -43 8.5t-34.5 23.5t-23 34.5t-8.5 41.5v372zM128 109q0 -23 16.5 -39.5t39.5 -16.5h206q24 0 40 16.5t16 39.5v350q0 23 -16 39.5t-40 16.5h-206
q-23 0 -39.5 -16.5t-16.5 -39.5v-350z" />
    <glyph glyph-name="Odieresis" unicode="&#xd6;" horiz-adv-x="574" 
d="M183 752h55v-98h-55v98zM336 752h55v-98h-55v98zM60 470q0 22 8.5 41.5t23.5 34.5t34.5 23.5t42.5 8.5h236q22 0 42 -8.5t35 -23.5t23.5 -34.5t8.5 -41.5v-372q0 -22 -8.5 -41.5t-23 -34.5t-34.5 -23.5t-43 -8.5h-236q-23 0 -43 8.5t-34.5 23.5t-23 34.5t-8.5 41.5v372z
M128 109q0 -23 16.5 -39.5t39.5 -16.5h206q24 0 40 16.5t16 39.5v350q0 23 -16 39.5t-40 16.5h-206q-23 0 -39.5 -16.5t-16.5 -39.5v-350z" />
    <glyph glyph-name="multiply" unicode="&#xd7;" horiz-adv-x="585" 
d="M70 59l185 186l-185 186l38 37l184 -185l186 186l37 -38l-185 -186l185 -186l-37 -37l-186 186l-184 -186z" />
    <glyph glyph-name="Oslash" unicode="&#xd8;" horiz-adv-x="574" 
d="M128 109q0 -19 13 -35l267 439q-5 2 -8.5 2h-8.5h-206q-24 0 -40.5 -16.5t-16.5 -39.5v-350zM167 56q7 -3 17 -3h206q23 0 39.5 16.5t16.5 39.5v350q0 20 -13 36zM60 470q0 22 8.5 41.5t23.5 34.5t34.5 23.5t42.5 8.5h236q22 0 37 -7l35 57l27 -18l-33 -54
q20 -15 31.5 -37.5t11.5 -48.5v-372q0 -22 -8.5 -41.5t-23 -34.5t-34.5 -23.5t-43 -8.5h-236q-23 0 -38 7l-34 -56l-27 17l33 54q-20 15 -31.5 37.5t-11.5 48.5v372z" />
    <glyph glyph-name="Ugrave" unicode="&#xd9;" horiz-adv-x="554" 
d="M255 620l-75 145h66l54 -145h-45zM65 568h67v-459q0 -23 16.5 -39.5t40.5 -16.5h175q24 0 40.5 16.5t16.5 39.5v459h68v-470q0 -22 -8.5 -41.5t-23 -34.5t-34.5 -23.5t-43 -8.5h-207q-22 0 -41.5 8.5t-34.5 23.5t-23.5 34.5t-8.5 41.5v470z" />
    <glyph glyph-name="Uacute" unicode="&#xda;" horiz-adv-x="554" 
d="M254 620l54 145h66l-75 -145h-45zM65 568h67v-459q0 -23 16.5 -39.5t40.5 -16.5h175q24 0 40.5 16.5t16.5 39.5v459h68v-470q0 -22 -8.5 -41.5t-23 -34.5t-34.5 -23.5t-43 -8.5h-207q-22 0 -41.5 8.5t-34.5 23.5t-23.5 34.5t-8.5 41.5v470z" />
    <glyph glyph-name="Ucircumflex" unicode="&#xdb;" horiz-adv-x="554" 
d="M255 766h45l82 -145h-57l-48 99l-48 -99h-57zM65 568h67v-459q0 -23 16.5 -39.5t40.5 -16.5h175q24 0 40.5 16.5t16.5 39.5v459h68v-470q0 -22 -8.5 -41.5t-23 -34.5t-34.5 -23.5t-43 -8.5h-207q-22 0 -41.5 8.5t-34.5 23.5t-23.5 34.5t-8.5 41.5v470z" />
    <glyph glyph-name="Udieresis" unicode="&#xdc;" horiz-adv-x="554" 
d="M173 752h55v-98h-55v98zM326 752h55v-98h-55v98zM65 568h67v-459q0 -23 16.5 -39.5t40.5 -16.5h175q24 0 40.5 16.5t16.5 39.5v459h68v-470q0 -22 -8.5 -41.5t-23 -34.5t-34.5 -23.5t-43 -8.5h-207q-22 0 -41.5 8.5t-34.5 23.5t-23.5 34.5t-8.5 41.5v470z" />
    <glyph glyph-name="Yacute" unicode="&#xdd;" horiz-adv-x="503" 
d="M10 568h77l164 -272l165 272h77l-208 -340v-228h-67v228zM232 620l54 145h66l-75 -145h-45z" />
    <glyph glyph-name="Thorn" unicode="&#xde;" horiz-adv-x="478" 
d="M70 0v568h68v-104h196q23 0 43 -8.5t34.5 -23.5t23 -34.5t8.5 -41.5v-138q0 -22 -8.5 -41.5t-23 -34.5t-34.5 -23.5t-43 -8.5h-196v-110h-68zM313 167q26 0 44 18.5t18 43.5v113q0 25 -18 43.5t-44 18.5h-175v-237h175z" />
    <glyph glyph-name="germandbls" unicode="&#xdf;" horiz-adv-x="460" 
d="M55 482q0 19 7.5 36.5t20.5 31t30.5 21t37.5 7.5h143q20 0 37.5 -7.5t30.5 -21t20.5 -31t7.5 -36.5v-106q0 -32 -18 -54.5t-42 -30.5q29 -5 52 -29.5t23 -59.5v-106q0 -40 -27.5 -68t-69.5 -28h-149v58h138q20 0 33 14t13 33v104q0 24 -16 40t-41 16h-125v49h110
q25 0 41.5 16t16.5 39v104q0 19 -13.5 33t-33.5 14h-119q-20 0 -33 -14t-13 -33v-533h-62v542z" />
    <glyph glyph-name="agrave" unicode="&#xe0;" horiz-adv-x="452" 
d="M201 460l-75 145h66l54 -145h-45zM397 0h-58l-4 37q-11 -20 -32.5 -33.5t-47.5 -13.5h-108q-20 0 -38 7.5t-31 21t-20.5 30.5t-7.5 37v54q0 26 16 46t40 27l200 54q12 4 19.5 14t7.5 22v23q0 19 -13 33t-33 14h-123q-20 0 -34 -14t-14 -33v-42h-59v51q0 40 28 68t69 28
h145q20 0 38 -7.5t31.5 -20.5t21 -30.5t7.5 -37.5v-335zM113 94q0 -19 13 -33t33 -14h114q25 0 42 17t17 42v123q-7 -7 -20 -11l-172 -49q-13 -3 -20 -13.5t-7 -23.5v-38z" />
    <glyph glyph-name="aacute" unicode="&#xe1;" horiz-adv-x="452" 
d="M201 460l54 145h66l-75 -145h-45zM397 0h-58l-4 37q-11 -20 -32.5 -33.5t-47.5 -13.5h-108q-20 0 -38 7.5t-31 21t-20.5 30.5t-7.5 37v54q0 26 16 46t40 27l200 54q12 4 19.5 14t7.5 22v23q0 19 -13 33t-33 14h-123q-20 0 -34 -14t-14 -33v-42h-59v51q0 40 28 68t69 28
h145q20 0 38 -7.5t31.5 -20.5t21 -30.5t7.5 -37.5v-335zM113 94q0 -19 13 -33t33 -14h114q25 0 42 17t17 42v123q-7 -7 -20 -11l-172 -49q-13 -3 -20 -13.5t-7 -23.5v-38z" />
    <glyph glyph-name="acircumflex" unicode="&#xe2;" horiz-adv-x="452" 
d="M201 605h45l82 -145h-57l-48 99l-48 -99h-57zM397 0h-58l-4 37q-11 -20 -32.5 -33.5t-47.5 -13.5h-108q-20 0 -38 7.5t-31 21t-20.5 30.5t-7.5 37v54q0 26 16 46t40 27l200 54q12 4 19.5 14t7.5 22v23q0 19 -13 33t-33 14h-123q-20 0 -34 -14t-14 -33v-42h-59v51
q0 40 28 68t69 28h145q20 0 38 -7.5t31.5 -20.5t21 -30.5t7.5 -37.5v-335zM113 94q0 -19 13 -33t33 -14h114q25 0 42 17t17 42v123q-7 -7 -20 -11l-172 -49q-13 -3 -20 -13.5t-7 -23.5v-38z" />
    <glyph glyph-name="atilde" unicode="&#xe3;" horiz-adv-x="452" 
d="M82 485q3 36 23 64t57 28q19 0 35.5 -6.5t32.5 -14.5t31 -14.5t31 -6.5t27.5 11.5t15.5 30.5h29q-2 -36 -22 -64t-57 -28q-19 0 -36 6.5t-32.5 14.5t-30.5 14.5t-31 6.5q-17 0 -28.5 -11.5t-14.5 -30.5h-30zM397 0h-58l-4 37q-11 -20 -32.5 -33.5t-47.5 -13.5h-108
q-20 0 -38 7.5t-31 21t-20.5 30.5t-7.5 37v54q0 26 16 46t40 27l200 54q12 4 19.5 14t7.5 22v23q0 19 -13 33t-33 14h-123q-20 0 -34 -14t-14 -33v-42h-59v51q0 40 28 68t69 28h145q20 0 38 -7.5t31.5 -20.5t21 -30.5t7.5 -37.5v-335zM113 94q0 -19 13 -33t33 -14h114
q25 0 42 17t17 42v123q-7 -7 -20 -11l-172 -49q-13 -3 -20 -13.5t-7 -23.5v-38z" />
    <glyph glyph-name="adieresis" unicode="&#xe4;" horiz-adv-x="452" 
d="M119 593h55v-98h-55v98zM272 593h55v-98h-55v98zM397 0h-58l-4 37q-11 -20 -32.5 -33.5t-47.5 -13.5h-108q-20 0 -38 7.5t-31 21t-20.5 30.5t-7.5 37v54q0 26 16 46t40 27l200 54q12 4 19.5 14t7.5 22v23q0 19 -13 33t-33 14h-123q-20 0 -34 -14t-14 -33v-42h-59v51
q0 40 28 68t69 28h145q20 0 38 -7.5t31.5 -20.5t21 -30.5t7.5 -37.5v-335zM113 94q0 -19 13 -33t33 -14h114q25 0 42 17t17 42v123q-7 -7 -20 -11l-172 -49q-13 -3 -20 -13.5t-7 -23.5v-38z" />
    <glyph glyph-name="aring" unicode="&#xe5;" horiz-adv-x="452" 
d="M397 0h-58l-4 37q-11 -20 -32.5 -33.5t-47.5 -13.5h-108q-20 0 -38 7.5t-31 21t-20.5 30.5t-7.5 37v54q0 26 16 46t40 27l200 54q12 4 19.5 14t7.5 22v23q0 19 -13 33t-33 14h-123q-20 0 -34 -14t-14 -33v-42h-59v51q0 40 28 68t69 28h145q20 0 38 -7.5t31.5 -20.5
t21 -30.5t7.5 -37.5v-335zM113 94q0 -19 13 -33t33 -14h114q25 0 42 17t17 42v123q-7 -7 -20 -11l-172 -49q-13 -3 -20 -13.5t-7 -23.5v-38zM143 554q0 35 24.5 59.5t59.5 24.5t60 -24t25 -59v-1q0 -35 -25 -59.5t-60 -24.5q-17 0 -32.5 6.5t-27 18t-18 26.5t-6.5 33z
M181 554q0 -19 13.5 -32.5t32.5 -13.5t32.5 13.5t13.5 32.5t-13 32.5t-33 13.5q-19 0 -32.5 -13.5t-13.5 -32.5z" />
    <glyph glyph-name="ae" unicode="&#xe6;" horiz-adv-x="739" 
d="M631 251v74q0 20 -14 34t-34 14h-141q-20 0 -33.5 -14t-13.5 -34v-74h236zM50 140q0 26 16 46t40 27l200 54q12 4 19.5 14t7.5 22v22q0 20 -13 34t-33 14h-123q-20 0 -34 -14t-14 -34v-41h-59v51q0 19 7.5 36.5t20.5 31t31 21t38 7.5h133q23 0 43 -11.5t33 -29.5
q13 18 33 29.5t43 11.5h153q21 0 38.5 -7.5t30.5 -21t20.5 -31t7.5 -36.5v-130h-294v-113q2 -18 15 -31t32 -13h141q20 0 34 14t14 33v49h58v-58q0 -40 -27.5 -68t-69.5 -28h-153q-23 0 -43 11t-33 29q-13 -18 -33 -29t-43 -11h-140q-41 0 -69 28t-28 68v54zM113 94
q0 -19 13 -33t33 -14h114q25 0 42 17t17 42v123q-7 -7 -20 -11l-172 -49q-13 -3 -20 -13.5t-7 -23.5v-38z" />
    <glyph glyph-name="ccedilla" unicode="&#xe7;" horiz-adv-x="467" 
d="M55 335q0 20 7.5 37.5t21 30.5t31 20.5t37.5 7.5h168q42 0 69.5 -28t27.5 -68v-60h-58v51q0 19 -14 33t-34 14h-147q-20 0 -33.5 -14t-13.5 -33v-231q0 -19 13.5 -33t33.5 -14h147q20 0 34 14t14 33v52h58v-61q0 -20 -7.5 -37t-20.5 -30.5t-30.5 -21t-38.5 -7.5h-53
l-63 -122h-45l45 122h-52q-20 0 -37.5 7.5t-31 21t-21 30.5t-7.5 37v249z" />
    <glyph glyph-name="egrave" unicode="&#xe8;" horiz-adv-x="461" 
d="M216 460l-75 145h66l54 -145h-45zM55 335q0 20 7.5 37.5t21 30.5t31 20.5t37.5 7.5h162q42 0 69.5 -28t27.5 -68v-130h-294v-110q0 -19 13.5 -33t33.5 -14h141q20 0 34 14t14 33v49h58v-58q0 -20 -7.5 -37t-20.5 -30.5t-30.5 -21t-38.5 -7.5h-162q-20 0 -37.5 7.5t-31 21
t-21 30.5t-7.5 37v249zM353 251v75q0 19 -14 33t-34 14h-141q-20 0 -33.5 -14t-13.5 -33v-75h236z" />
    <glyph glyph-name="eacute" unicode="&#xe9;" horiz-adv-x="461" 
d="M216 460l54 145h66l-75 -145h-45zM55 335q0 20 7.5 37.5t21 30.5t31 20.5t37.5 7.5h162q42 0 69.5 -28t27.5 -68v-130h-294v-110q0 -19 13.5 -33t33.5 -14h141q20 0 34 14t14 33v49h58v-58q0 -20 -7.5 -37t-20.5 -30.5t-30.5 -21t-38.5 -7.5h-162q-20 0 -37.5 7.5t-31 21
t-21 30.5t-7.5 37v249zM353 251v75q0 19 -14 33t-34 14h-141q-20 0 -33.5 -14t-13.5 -33v-75h236z" />
    <glyph glyph-name="ecircumflex" unicode="&#xea;" horiz-adv-x="461" 
d="M344 460h-57l-48 99l-48 -99h-57l82 145h45zM55 335q0 20 7.5 37.5t21 30.5t31 20.5t37.5 7.5h162q42 0 69.5 -28t27.5 -68v-130h-294v-110q0 -19 13.5 -33t33.5 -14h141q20 0 34 14t14 33v49h58v-58q0 -20 -7.5 -37t-20.5 -30.5t-30.5 -21t-38.5 -7.5h-162
q-20 0 -37.5 7.5t-31 21t-21 30.5t-7.5 37v249zM353 251v75q0 19 -14 33t-34 14h-141q-20 0 -33.5 -14t-13.5 -33v-75h236z" />
    <glyph glyph-name="edieresis" unicode="&#xeb;" horiz-adv-x="461" 
d="M343 495h-55v98h55v-98zM190 495h-55v98h55v-98zM55 335q0 20 7.5 37.5t21 30.5t31 20.5t37.5 7.5h162q42 0 69.5 -28t27.5 -68v-130h-294v-110q0 -19 13.5 -33t33.5 -14h141q20 0 34 14t14 33v49h58v-58q0 -20 -7.5 -37t-20.5 -30.5t-30.5 -21t-38.5 -7.5h-162
q-20 0 -37.5 7.5t-31 21t-21 30.5t-7.5 37v249zM353 251v75q0 19 -14 33t-34 14h-141q-20 0 -33.5 -14t-13.5 -33v-75h236z" />
    <glyph glyph-name="igrave" unicode="&#xec;" horiz-adv-x="194" 
d="M75 460l-75 145h66l54 -145h-45zM65 421h64v-421h-64v421z" />
    <glyph glyph-name="iacute" unicode="&#xed;" horiz-adv-x="194" 
d="M75 460l54 145h66l-75 -145h-45zM65 421h64v-421h-64v421z" />
    <glyph glyph-name="icircumflex" unicode="&#xee;" horiz-adv-x="194" 
d="M75 605h45l82 -145h-57l-48 99l-48 -99h-57zM65 421h64v-421h-64v421z" />
    <glyph glyph-name="idieresis" unicode="&#xef;" horiz-adv-x="194" 
d="M-7 593h55v-98h-55v98zM146 593h55v-98h-55v98zM65 421h64v-421h-64v421z" />
    <glyph glyph-name="eth" unicode="&#xf0;" horiz-adv-x="480" 
d="M55 335q0 19 7.5 36.5t20.5 31t30.5 21t38.5 7.5h130q26 0 47 -13.5t32 -34.5v117l-48 7v46l48 -8v93h64v-103l48 -7v-45l-48 7v-490h-58l-5 37q-11 -21 -32 -34t-47 -13h-131q-42 0 -69.5 28t-27.5 68v249zM119 93q0 -19 13 -33t33 -14h132q27 0 45.5 18.5t18.5 44.5
v199q0 26 -18.5 44.5t-45.5 18.5h-132q-20 0 -33 -14t-13 -33v-231z" />
    <glyph glyph-name="ntilde" unicode="&#xf1;" horiz-adv-x="476" 
d="M97 485q3 36 23 64t57 28q19 0 35.5 -6.5t32.5 -14.5t31 -14.5t31 -6.5t27.5 11.5t15.5 30.5h29q-2 -36 -22 -64t-57 -28q-19 0 -36 6.5t-32.5 14.5t-30.5 14.5t-31 6.5q-17 0 -28.5 -11.5t-14.5 -30.5h-30zM55 421h64v-38q11 21 31.5 34.5t46.5 13.5h127q41 0 69 -28
t28 -68v-335h-64v325q0 19 -13.5 33t-33.5 14h-128q-27 0 -45 -18.5t-18 -44.5v-309h-64v421z" />
    <glyph glyph-name="ograve" unicode="&#xf2;" horiz-adv-x="477" 
d="M422 86q0 -40 -27.5 -68t-68.5 -28h-174q-41 0 -69 28t-28 68v249q0 19 7.5 36.5t21 31t31 21t37.5 7.5h174q20 0 37.5 -7.5t30.5 -21t20.5 -31t7.5 -36.5v-249zM360 326q0 19 -13 33t-33 14h-150q-20 0 -33.5 -14t-13.5 -33v-231q0 -19 13.5 -33t33.5 -14h150
q20 0 33 14t13 33v231zM216 460l-75 145h66l54 -145h-45z" />
    <glyph glyph-name="oacute" unicode="&#xf3;" horiz-adv-x="477" 
d="M55 335q0 19 7.5 36.5t20.5 31t30.5 21t37.5 7.5h174q20 0 37.5 -7.5t31 -21t21 -31t7.5 -36.5v-249q0 -40 -28 -68t-69 -28h-174q-41 0 -68.5 28t-27.5 68v249zM117 95q0 -19 13 -33t33 -14h150q20 0 33.5 14t13.5 33v231q0 19 -13.5 33t-33.5 14h-150q-20 0 -33 -14
t-13 -33v-231zM216 460l54 145h66l-75 -145h-45z" />
    <glyph glyph-name="ocircumflex" unicode="&#xf4;" horiz-adv-x="477" 
d="M216 605h45l82 -145h-57l-48 99l-48 -99h-57zM55 335q0 19 7.5 36.5t20.5 31t30.5 21t37.5 7.5h174q20 0 37.5 -7.5t31 -21t21 -31t7.5 -36.5v-249q0 -40 -28 -68t-69 -28h-174q-41 0 -68.5 28t-27.5 68v249zM117 95q0 -19 13 -33t33 -14h150q20 0 33.5 14t13.5 33v231
q0 19 -13.5 33t-33.5 14h-150q-20 0 -33 -14t-13 -33v-231z" />
    <glyph glyph-name="otilde" unicode="&#xf5;" horiz-adv-x="477" 
d="M97 485q3 36 23 64t57 28q19 0 35.5 -6.5t32.5 -14.5t31 -14.5t31 -6.5t27.5 11.5t15.5 30.5h29q-2 -36 -22 -64t-57 -28q-19 0 -36 6.5t-32.5 14.5t-30.5 14.5t-31 6.5q-17 0 -28.5 -11.5t-14.5 -30.5h-30zM55 335q0 19 7.5 36.5t20.5 31t30.5 21t37.5 7.5h174
q20 0 37.5 -7.5t31 -21t21 -31t7.5 -36.5v-249q0 -40 -28 -68t-69 -28h-174q-41 0 -68.5 28t-27.5 68v249zM117 95q0 -19 13 -33t33 -14h150q20 0 33.5 14t13.5 33v231q0 19 -13.5 33t-33.5 14h-150q-20 0 -33 -14t-13 -33v-231z" />
    <glyph glyph-name="odieresis" unicode="&#xf6;" horiz-adv-x="477" 
d="M134 593h55v-98h-55v98zM287 593h55v-98h-55v98zM55 335q0 19 7.5 36.5t20.5 31t30.5 21t37.5 7.5h174q20 0 37.5 -7.5t31 -21t21 -31t7.5 -36.5v-249q0 -40 -28 -68t-69 -28h-174q-41 0 -68.5 28t-27.5 68v249zM117 95q0 -19 13 -33t33 -14h150q20 0 33.5 14t13.5 33
v231q0 19 -13.5 33t-33.5 14h-150q-20 0 -33 -14t-13 -33v-231z" />
    <glyph glyph-name="divide" unicode="&#xf7;" horiz-adv-x="469" 
d="M201 90h67v-67h-67v67zM50 269h369v-59h-369v59zM201 455h67v-67h-67v67z" />
    <glyph glyph-name="oslash" unicode="&#xf8;" horiz-adv-x="477" 
d="M55 335q0 19 7.5 36.5t20.5 31t30.5 21t37.5 7.5h174q8 0 15 -1t14 -3l33 54l25 -15l-32 -52q19 -14 30.5 -34.5t11.5 -44.5v-249q0 -40 -28 -68t-69 -28h-174q-16 0 -28 4l-33 -54l-26 15l32 52q-19 13 -30 33.5t-11 45.5v249zM156 49q2 -1 7 -1h150q20 0 33.5 14
t13.5 33v231q0 19 -14 33zM117 95q0 -18 13 -33l191 310q-3 1 -8 1h-150q-20 0 -33 -14t-13 -33v-231z" />
    <glyph glyph-name="ugrave" unicode="&#xf9;" horiz-adv-x="472" 
d="M213 460l-75 145h66l54 -145h-45zM55 421h64v-324q0 -20 13.5 -34t33.5 -14h124q27 0 45 18.5t18 45.5v308h64v-421h-58l-5 38q-11 -21 -31.5 -34.5t-46.5 -13.5h-124q-20 0 -38 7.5t-31 21t-20.5 30.5t-7.5 37v335z" />
    <glyph glyph-name="uacute" unicode="&#xfa;" horiz-adv-x="472" 
d="M213 460l54 145h66l-75 -145h-45zM55 421h64v-324q0 -20 13.5 -34t33.5 -14h124q27 0 45 18.5t18 45.5v308h64v-421h-58l-5 38q-11 -21 -31.5 -34.5t-46.5 -13.5h-124q-20 0 -38 7.5t-31 21t-20.5 30.5t-7.5 37v335z" />
    <glyph glyph-name="ucircumflex" unicode="&#xfb;" horiz-adv-x="472" 
d="M214 605h45l82 -145h-57l-48 99l-48 -99h-57zM55 421h64v-324q0 -20 13.5 -34t33.5 -14h124q27 0 45 18.5t18 45.5v308h64v-421h-58l-5 38q-11 -21 -31.5 -34.5t-46.5 -13.5h-124q-20 0 -38 7.5t-31 21t-20.5 30.5t-7.5 37v335z" />
    <glyph glyph-name="udieresis" unicode="&#xfc;" horiz-adv-x="472" 
d="M131 593h55v-98h-55v98zM284 593h55v-98h-55v98zM55 421h64v-324q0 -20 13.5 -34t33.5 -14h124q27 0 45 18.5t18 45.5v308h64v-421h-58l-5 38q-11 -21 -31.5 -34.5t-46.5 -13.5h-124q-20 0 -38 7.5t-31 21t-20.5 30.5t-7.5 37v335z" />
    <glyph glyph-name="yacute" unicode="&#xfd;" horiz-adv-x="397" 
d="M78 -217l90 226l-163 412h70l126 -329l124 329h67l-246 -638h-68zM194 460l54 145h66l-76 -145h-44z" />
    <glyph glyph-name="thorn" unicode="&#xfe;" horiz-adv-x="480" 
d="M55 -217v855h64v-255q11 21 32 34.5t47 13.5h130q21 0 38.5 -7.5t30.5 -21t20.5 -31t7.5 -36.5v-249q0 -40 -27.5 -68t-69.5 -28h-130q-26 0 -47 13t-32 34v-254h-64zM119 109q0 -26 18.5 -44.5t45.5 -18.5h132q20 0 33 14t13 33v231q0 19 -13 33t-33 14h-132
q-27 0 -45.5 -18.5t-18.5 -44.5v-199z" />
    <glyph glyph-name="ydieresis" unicode="&#xff;" horiz-adv-x="397" 
d="M94 593h55v-98h-55v98zM247 593h55v-98h-55v98zM78 -217l90 226l-163 412h70l126 -329l124 329h67l-246 -638h-68z" />
    <glyph glyph-name="dotlessi" unicode="&#x131;" horiz-adv-x="194" 
d="M65 421h64v-421h-64v421z" />
    <glyph glyph-name="Lslash" unicode="&#x141;" horiz-adv-x="446" 
d="M70 0v272l-50 -10v47l50 9v250h68v-238l50 9v-47l-50 -10v-219h298v-63h-366z" />
    <glyph glyph-name="lslash" unicode="&#x142;" horiz-adv-x="215" 
d="M7 309l48 8v321h64v-310l48 9v-45l-48 -9v-176q0 -19 13.5 -33t33.5 -14h39v-60h-53q-20 0 -38 7.5t-31 21t-20.5 30.5t-7.5 37v176l-48 -9v46z" />
    <glyph glyph-name="OE" unicode="&#x152;" horiz-adv-x="853" 
d="M60 470q0 22 8.5 41.5t23.5 34.5t34.5 23.5t42.5 8.5h191q18 0 33 -5.5t26 -13t19 -15.5t12 -14l1 38h355v-61h-292v-191h225v-57h-225v-196h299v-63h-362l-1 37q-4 -6 -12 -14t-19 -15.5t-26 -12.5t-33 -5h-191q-23 0 -42.5 8.5t-34.5 23.5t-23.5 34.5t-8.5 41.5v372z
M128 109q0 -23 16.5 -39.5t39.5 -16.5h192q30 0 50.5 20.5t20.5 49.5v324q-2 29 -22 48.5t-49 19.5h-192q-23 0 -39.5 -16.5t-16.5 -39.5v-350z" />
    <glyph glyph-name="oe" unicode="&#x153;" horiz-adv-x="766" 
d="M55 335q0 19 7.5 36.5t20.5 31t31 21t38 7.5h163q24 0 43.5 -11.5t32.5 -29.5q13 18 33 29.5t44 11.5h151q20 0 38 -7.5t31 -21t20.5 -31t7.5 -36.5v-116h-294v-127q1 -18 14 -31t33 -13h140q20 0 34 14t14 33v48h59v-57q0 -40 -28 -68t-69 -28h-151q-24 0 -44 11t-33 29
q-13 -18 -32.5 -29t-43.5 -11h-163q-41 0 -69 28t-28 68v249zM117 95q0 -22 17 -34q5 -6 16 -9.5t22 -3.5h134h4q15 0 27 8t18 20q5 10 5 24v225q0 23 -17 35q-5 6 -16 9.5t-22 3.5h-141q-14 0 -25.5 -8t-16.5 -20q-5 -10 -5 -25v-225zM657 251v74q0 20 -14 34t-34 14h-140
q-20 0 -33.5 -14t-13.5 -34v-74h235z" />
    <glyph glyph-name="Scaron" unicode="&#x160;" horiz-adv-x="518" 
d="M154 766h57l48 -99l48 99h57l-82 -145h-45zM55 166h65v-57q0 -23 17 -39.5t40 -16.5h162q23 0 40.5 16.5t17.5 39.5v64q0 15 -8.5 30t-25.5 20l-240 75q-30 10 -49 36t-19 58v78q0 22 8.5 41.5t23.5 34.5t34.5 23.5t42.5 8.5h190q23 0 43 -8.5t34.5 -23.5t23 -34.5
t8.5 -41.5v-68h-65v57q0 23 -17 39.5t-40 16.5h-162q-23 0 -40.5 -16.5t-17.5 -39.5v-59q0 -15 8.5 -29.5t25.5 -19.5l240 -76q31 -10 49.5 -36t18.5 -58v-83q0 -22 -8.5 -41.5t-23 -34.5t-34.5 -23.5t-43 -8.5h-190q-23 0 -42.5 8.5t-34.5 23.5t-23.5 34.5t-8.5 41.5v68z
" />
    <glyph glyph-name="scaron" unicode="&#x161;" horiz-adv-x="432" 
d="M111 606h57l48 -99l48 99h57l-82 -145h-45zM45 135h59v-40q0 -19 14 -32.5t34 -13.5h126q20 0 33.5 14t13.5 33v28q0 13 -7.5 23t-20.5 14l-196 56q-25 7 -40.5 29t-15.5 48v41q0 20 7.5 37.5t21 30.5t31 20.5t37.5 7.5h148q41 0 69 -28t28 -68v-49h-59v40q0 19 -14 32.5
t-34 13.5h-126q-20 0 -33 -13.5t-13 -32.5v-28q0 -12 7 -22.5t20 -14.5l196 -56q26 -7 41 -28.5t15 -48.5v-42q0 -40 -28 -68t-69 -28h-148q-20 0 -37.5 7.5t-31 20.5t-21 30.5t-7.5 37.5v49z" />
    <glyph glyph-name="Ydieresis" unicode="&#x178;" horiz-adv-x="503" 
d="M147 752h55v-98h-55v98zM300 752h55v-98h-55v98zM10 568h77l164 -272l165 272h77l-208 -340v-228h-67v228z" />
    <glyph glyph-name="Zcaron" unicode="&#x17d;" horiz-adv-x="447" 
d="M20 0v29l304 478h-304v61h404v-30l-303 -474h306v-64h-407zM119 766h57l48 -99l48 99h57l-83 -145h-45z" />
    <glyph glyph-name="zcaron" unicode="&#x17e;" horiz-adv-x="374" 
d="M82 606h57l48 -99l48 99h57l-82 -145h-45zM25 0v28l225 334h-225v59h321v-29l-225 -331h228v-61h-324z" />
    <glyph glyph-name="florin" unicode="&#x192;" horiz-adv-x="346" 
d="M-162 -165h89q21 0 37.5 11.5t21.5 30.5l131 491h-68v53h82l35 131q10 37 38.5 61.5t68.5 24.5h101v-62h-89q-21 0 -37 -11.5t-21 -30.5l-30 -113h123v-53h-137l-136 -509q-10 -37 -39 -61.5t-68 -24.5h-102v62z" />
    <glyph glyph-name="circumflex" unicode="&#x2c6;" 
d="M153 588h45l82 -145h-57l-48 99l-48 -99h-57z" />
    <glyph glyph-name="caron" unicode="&#x2c7;" 
d="M127 588l48 -99l48 99h57l-82 -145h-45l-83 145h57z" />
    <glyph glyph-name="breve" unicode="&#x2d8;" 
d="M107 576q0 -34 21 -53.5t47 -19.5t47 18.5t22 54.5h48q0 -30 -10.5 -53.5t-27 -39.5t-37.5 -24t-42 -8q-23 0 -44 9t-37 25t-26 39t-10 52h49z" />
    <glyph glyph-name="dotaccent" unicode="&#x2d9;" 
d="M147 575h55v-98h-55v98z" />
    <glyph glyph-name="ring" unicode="&#x2da;" 
d="M90 526q0 35 24.5 59.5t59.5 24.5t60 -24t25 -59v-1q0 -35 -25 -59.5t-60 -24.5q-17 0 -32.5 6.5t-27 18t-18 26.5t-6.5 33zM128 526q0 -19 13.5 -32.5t32.5 -13.5t32.5 13.5t13.5 32.5t-13 32.5t-33 13.5q-19 0 -32.5 -13.5t-13.5 -32.5z" />
    <glyph glyph-name="ogonek" unicode="&#x2db;" 
d="M181 13l54 -145h-44l-76 145h66z" />
    <glyph glyph-name="tilde" unicode="&#x2dc;" 
d="M34 465q3 36 23 64t57 28q19 0 35.5 -6.5t32.5 -14.5t31 -14.5t31 -6.5t27.5 11.5t15.5 30.5h29q-2 -36 -22 -64t-57 -28q-19 0 -36 6.5t-32.5 14.5t-30.5 14.5t-31 6.5q-17 0 -28.5 -11.5t-14.5 -30.5h-30v0z" />
    <glyph glyph-name="hungarumlaut" unicode="&#x2dd;" 
d="M228 588h66l-75 -145h-45zM110 588h66l-76 -145h-44z" />
    <glyph glyph-name="uni0394" unicode="&#x394;" horiz-adv-x="532" 
d="M235 568h63l224 -568h-512zM102 57h328l-164 425z" />
    <glyph glyph-name="uni0394" unicode="&#x2206;" horiz-adv-x="532" 
d="M235 568h63l224 -568h-512zM102 57h328l-164 425z" />
    <glyph glyph-name="endash" unicode="&#x2013;" horiz-adv-x="380" 
d="M0 238h380v-58h-380v58z" />
    <glyph glyph-name="emdash" unicode="&#x2014;" horiz-adv-x="760" 
d="M0 238h760v-58h-760v58z" />
    <glyph glyph-name="quoteleft" unicode="&#x2018;" horiz-adv-x="237" 
d="M80 568h78v-78h-30l32 -157h-23l-57 171v64z" />
    <glyph glyph-name="quoteright" unicode="&#x2019;" horiz-adv-x="237" 
d="M157 504l-58 -171h-22l31 157h-29v78h78v-64z" />
    <glyph glyph-name="quotesinglbase" unicode="&#x201a;" horiz-adv-x="238" 
d="M77 -157l32 157h-29v79h78v-64l-58 -172h-23z" />
    <glyph glyph-name="quotedblleft" unicode="&#x201c;" horiz-adv-x="395" 
d="M80 568h78v-78h-30l32 -157h-23l-57 171v64zM238 568h78v-78h-29l31 -157h-22l-58 171v64z" />
    <glyph glyph-name="quotedblright" unicode="&#x201d;" horiz-adv-x="395" 
d="M315 504l-57 -171h-23l32 157h-30v78h78v-64zM157 504l-58 -171h-22l31 157h-29v78h78v-64z" />
    <glyph glyph-name="quotedblbase" unicode="&#x201e;" horiz-adv-x="396" 
d="M77 -157l32 157h-29v79h78v-64l-58 -172h-23zM235 -157l32 157h-29v79h78v-64l-58 -172h-23z" />
    <glyph glyph-name="dagger" unicode="&#x2020;" horiz-adv-x="416" 
d="M184 568h48l-1 -197h135v-40h-136l-3 -541h-39l-3 541h-135v40h135z" />
    <glyph glyph-name="daggerdbl" unicode="&#x2021;" horiz-adv-x="418" 
d="M233 566l-1 -197h136v-41h-136l-1 -151l1 -152h136v-40h-136l1 -197h-48l1 197h-136v40h136l1 152l-1 151h-136v41h136l-1 197h48z" />
    <glyph glyph-name="bullet" unicode="&#x2022;" horiz-adv-x="325" 
d="M50 286q0 24 9 44.5t24 35.5t35.5 24t43.5 9q24 0 44.5 -9t35.5 -24t24 -35.5t9 -44.5q0 -23 -9 -43.5t-24 -36t-35.5 -24.5t-43.5 -9q-24 0 -44.5 9t-35.5 24.5t-24 36t-9 43.5z" />
    <glyph glyph-name="ellipsis" unicode="&#x2026;" horiz-adv-x="714" 
d="M318 0v79h78v-79h-78zM556 0v79h78v-79h-78zM80 0v79h78v-79h-78z" />
    <glyph glyph-name="perthousand" unicode="&#x2030;" horiz-adv-x="755" 
d="M274 144q0 29 19.5 49t48.5 20h62q28 0 48 -20t20 -49v-85q0 -28 -20 -48t-48 -20h-62q-29 0 -48.5 20t-19.5 48v85zM40 510q0 28 19.5 48t47.5 20h63q28 0 48 -20t20 -48v-85q0 -29 -20 -49t-48 -20h-63q-28 0 -47.5 20t-19.5 49v85zM87 431q0 -12 8 -21t19 -9h49
q11 0 19.5 9t8.5 21v73q0 11 -8.5 20t-19.5 9h-49q-11 0 -19 -9t-8 -20v-73zM98 0l267 568h48l-267 -568h-48zM321 65q0 -11 8 -20t19 -9h49q11 0 19.5 9t8.5 20v73q0 12 -8.5 21t-19.5 9h-49q-11 0 -19 -9t-8 -21v-73zM517 144q0 29 19.5 49t48.5 20h62q28 0 48 -20t20 -49
v-85q0 -28 -20 -48t-48 -20h-62q-29 0 -48.5 20t-19.5 48v85zM564 65q0 -11 8 -20t19 -9h49q11 0 19.5 9t8.5 20v73q0 12 -8.5 21t-19.5 9h-49q-11 0 -19 -9t-8 -21v-73z" />
    <glyph glyph-name="guilsinglleft" unicode="&#x2039;" horiz-adv-x="229" 
d="M120 419h69l-91 -179l91 -180h-69l-90 180z" />
    <glyph glyph-name="guilsinglright" unicode="&#x203a;" horiz-adv-x="229" 
d="M199 240l-90 -180h-69l91 180l-91 179h69z" />
    <glyph glyph-name="fraction" unicode="&#x2044;" horiz-adv-x="223" 
d="M291 587h57l-420 -587h-53z" />
    <glyph glyph-name="Euro" unicode="&#x20ac;" horiz-adv-x="543" 
d="M30 224v34h50v53h-50v33h50v126q0 22 8.5 41.5t23.5 34.5t34.5 23.5t42.5 8.5h210q23 0 43 -8.5t34.5 -23.5t23 -34.5t8.5 -41.5v-71h-65v60q0 23 -16.5 39.5t-39.5 16.5h-183q-23 0 -39.5 -16.5t-16.5 -39.5v-115h243l-10 -33h-233v-53h212l-9 -34h-203v-115
q0 -23 16.5 -39.5t39.5 -16.5h183q23 0 39.5 16.5t16.5 39.5v59h65v-70q0 -22 -8.5 -41.5t-23 -34.5t-34.5 -23.5t-43 -8.5h-210q-23 0 -42.5 8.5t-34.5 23.5t-23.5 34.5t-8.5 41.5v126h-50z" />
    <glyph glyph-name="trademark" unicode="&#x2122;" horiz-adv-x="811" 
d="M30 568h306v-49h-127v-322h-53v322h-126v49zM396 568h42l150 -305l151 305h42v-371h-53v249l-121 -249h-36l-122 249v-249h-53v371z" />
    <glyph glyph-name="minus" unicode="&#x2212;" horiz-adv-x="469" 
d="M50 211v58h369v-58h-369z" />
    <glyph glyph-name="uniFB01" unicode="&#xfb01;" horiz-adv-x="435" 
d="M85 368h-75v53h75v121q0 40 28 68t68 28h132v-56h-118q-20 0 -33 -14t-13 -33v-114h221v-421h-64v368h-157v-499q0 -20 -7.5 -37.5t-21 -30.5t-31 -20.5t-37.5 -7.5h-71v56h57q20 0 33.5 14t13.5 33v492z" />
    <glyph glyph-name="uniFB02" unicode="&#xfb02;" horiz-adv-x="495" 
d="M85 368h-75v53h75v121q0 20 7.5 37.5t21 30.5t31 20.5t37.5 7.5h217v-531q0 -19 13.5 -33t33.5 -14h39v-60h-53q-20 0 -38 7.5t-31 21t-20.5 30.5t-7.5 37v486h-139q-20 0 -33.5 -14t-13.5 -33v-114h124v-53h-124v-499q0 -20 -7.5 -37.5t-21 -30.5t-31 -20.5t-37.5 -7.5
h-71v56h57q20 0 33.5 14t13.5 33v492z" />
    <glyph glyph-name="glyph13" horiz-adv-x="543" 
d="M30 224v34h50v53h-50v33h50v126q0 22 8.5 41.5t23.5 34.5t34.5 23.5t42.5 8.5h210q23 0 43 -8.5t34.5 -23.5t23 -34.5t8.5 -41.5v-71h-65v60q0 23 -16.5 39.5t-39.5 16.5h-183q-23 0 -39.5 -16.5t-16.5 -39.5v-115h243l-10 -33h-233v-53h212l-9 -34h-203v-115
q0 -23 16.5 -39.5t39.5 -16.5h183q23 0 39.5 16.5t16.5 39.5v59h65v-70q0 -22 -8.5 -41.5t-23 -34.5t-34.5 -23.5t-43 -8.5h-210q-23 0 -42.5 8.5t-34.5 23.5t-23.5 34.5t-8.5 41.5v126h-50z" />
    </font>
</defs>
</svg>
